# xmcd
#
# Track frame offsets:
#	150
#	9667
#	22689
#	36376
#	45020
#	55625
#	66011
#	76820
#	86330
#	98123
#	110234
#	123320
#	133537
#	142081
#
# Disc length: 2078 seconds
#
# Revision: 0
# Processed by: cddbd v1.5.1PL0 Copyright (c) Steve Scherf et al.
# Submitted via: dBpowerAMP V4.0
#
DISCID=a9081c0e
DTITLE=Various Artist - On The Road Again
DYEAR=1900
DGENRE=Country
TTITLE0=Dave Dudley - Six Days On The Road
TTITLE1=Johnny Cash - Ring Of Fire
TTITLE2=Charlie Rich - Hurry Up Freight Train
TTITLE3=Patsy Cline - Ain't No Wheels On This Ship
TTITLE4=Roger Miller - King Of The Road
TTITLE5=Ronnie Milsap - Lonely Weekends
TTITLE6=Johnny Cash - Wide Open Road
TTITLE7=Merle Travis - Sixteen Tons
TTITLE8=Merle Haggard - From Graceland To The Promise Land
TTITLE9=Johnny Dollar - Big Big Rolling Man
TTITLE10=Kenny Rogers - Ruby (Dont Take Your Love To Town)
TTITLE11=Mickey Gilley - Found That Girl At A Drive-In Movie
TTITLE12=Waylon Jennings - Abilene
TTITLE13=Don Williams - Where Do We Go From Here
EXTD=
EXTT0=
EXTT1=
EXTT2=
EXTT3=
EXTT4=
EXTT5=
EXTT6=
EXTT7=
EXTT8=
EXTT9=
EXTT10=
EXTT11=
EXTT12=
EXTT13=
PLAYORDER=
